<svg width="232" height="47" viewBox="0 0 232 47" fill="none" xmlns="http://www.w3.org/2000/svg">
<g clip-path="url(#clip0_10_342)">
<path d="M20.4562 29.4749C23.7561 29.4749 26.4312 26.7998 26.4312 23.4999C26.4312 20.2 23.7561 17.5249 20.4562 17.5249C17.1563 17.5249 14.4812 20.2 14.4812 23.4999C14.4812 26.7998 17.1563 29.4749 20.4562 29.4749Z" fill="#F20823"/>
<path d="M20.4563 39.325C11.7313 39.325 4.6313 32.225 4.6313 23.5C4.6313 14.775 11.7313 7.675 20.4563 7.675C27.0688 7.675 32.7438 11.75 35.1063 17.525H39.5438C37.0063 9.4125 29.4063 3.5 20.4563 3.5C9.4313 3.5 0.456299 12.475 0.456299 23.5C0.456299 34.525 9.4313 43.5 20.4563 43.5C29.4063 43.5 37.0063 37.5875 39.5438 29.475H35.1063C32.7438 35.25 27.0688 39.325 20.4563 39.325Z" fill="#F20823"/>
</g>
<path d="M61.3437 32.112V14.688L65.2317 10.8H78.1197V15.444H66.5997V31.356H78.4797V36H65.2317L61.3437 32.112ZM80.9893 32.04V24.48L94.0933 24.12V20.16H81.7093V15.84H95.2453L99.2053 19.8V36H84.9493L80.9893 32.04ZM86.1013 27.648V31.824H94.0933V26.928L86.1013 27.648ZM102.683 36V31.824H115.643V27.396H102.683V19.656L106.499 15.84H120.755V20.016H107.795V24.228H120.755V32.292L117.047 36H102.683ZM124.24 41.04V15.84H138.964L143.068 19.944V31.896L138.964 36H129.352V41.04H124.24ZM137.956 20.16H129.352V31.68H137.956V20.16ZM146.312 32.184V19.656L150.128 15.84H164.312V27.144H151.424V31.68H163.592V36H150.128L146.312 32.184ZM151.424 24.336L159.848 23.976V19.872H151.424V24.336ZM167.799 36V19.8L171.759 15.84H182.127V20.448H172.911V36H167.799ZM192.692 36L198.56 10.8H209.36L215.228 36H209.864L208.604 30.24H199.316L198.056 36H192.692ZM200.072 26.388H207.848L205.328 14.94H202.592L200.072 26.388ZM217.363 36.144V32.04L220.927 31.86V14.94L217.363 14.76V10.656L223.483 10.944L229.603 10.656V14.76L226.039 14.94V31.86L229.603 32.04V36.144L223.483 35.856L217.363 36.144Z" fill="white"/>
<defs>
<clipPath id="clip0_10_342">
<rect width="39.0875" height="40" fill="white" transform="translate(0.456299 3.5)"/>
</clipPath>
</defs>
</svg>
